<svg width="600" height="400" viewBox="0 0 600 400" xmlns="http://www.w3.org/2000/svg">
  <g stroke="#000000" stroke-width="1" fill="none">
    <polygon points="60,30 90,60 90,100 60,130 30,100 30,60"></polygon>
    <polygon points="120,60 150,90 150,130 120,160 90,130 90,90"></polygon>
    <polygon points="180,30 210,60 210,100 180,130 150,100 150,60"></polygon>
    <polygon points="240,60 270,90 270,130 240,160 210,130 210,90"></polygon>
    <polygon points="300,30 330,60 330,100 300,130 270,100 270,60"></polygon>
    <polygon points="360,60 390,90 390,130 360,160 330,130 330,90"></polygon>
    <polygon points="420,30 450,60 450,100 420,130 390,100 390,60"></polygon>
  </g>
</svg>
